<svg width="37" height="37" viewBox="0 0 37 37" fill="none" xmlns="http://www.w3.org/2000/svg">
<path d="M34.4611 0.120218C34.3865 0.122573 34.3122 0.129094 34.2384 0.139749H24.5001C24.2351 0.136001 23.972 0.184964 23.726 0.283791C23.4801 0.382619 23.2563 0.52934 23.0675 0.715429C22.8788 0.901518 22.7289 1.12326 22.6266 1.36778C22.5243 1.61229 22.4716 1.8747 22.4716 2.13975C22.4716 2.4048 22.5243 2.66721 22.6266 2.91172C22.7289 3.15624 22.8788 3.37798 23.0675 3.56407C23.2563 3.75016 23.4801 3.89688 23.726 3.99571C23.972 4.09453 24.2351 4.1435 24.5001 4.13975H29.672L11.0861 22.7257C10.8941 22.91 10.7409 23.1307 10.6353 23.375C10.5297 23.6192 10.474 23.8821 10.4712 24.1482C10.4685 24.4143 10.519 24.6782 10.6195 24.9246C10.7201 25.1709 10.8688 25.3947 11.057 25.5829C11.2451 25.771 11.469 25.9198 11.7153 26.0203C11.9617 26.1209 12.2256 26.1713 12.4917 26.1686C12.7578 26.1659 13.0206 26.1101 13.2649 26.0046C13.5092 25.899 13.7299 25.7458 13.9142 25.5538L32.5001 6.96787V12.1397C32.4964 12.4048 32.5453 12.6679 32.6442 12.9138C32.743 13.1598 32.8897 13.3836 33.0758 13.5724C33.2619 13.7611 33.4836 13.911 33.7281 14.0133C33.9727 14.1156 34.2351 14.1682 34.5001 14.1682C34.7652 14.1682 35.0276 14.1156 35.2721 14.0133C35.5166 13.911 35.7384 13.7611 35.9244 13.5724C36.1105 13.3836 36.2573 13.1598 36.3561 12.9138C36.4549 12.6679 36.5039 12.4048 36.5001 12.1397V2.39366C36.54 2.10571 36.5165 1.81254 36.4315 1.53456C36.3465 1.25658 36.2019 1.00047 36.0078 0.784068C35.8137 0.567666 35.5748 0.396171 35.3077 0.281523C35.0405 0.166874 34.7516 0.111828 34.4611 0.120218ZM4.50012 0.139749C2.314 0.139749 0.500122 1.95362 0.500122 4.13975V32.1397C0.500122 34.3259 2.314 36.1397 4.50012 36.1397H32.5001C34.6862 36.1397 36.5001 34.3259 36.5001 32.1397V20.1397C36.5039 19.8747 36.4549 19.6116 36.3561 19.3657C36.2573 19.1197 36.1105 18.8959 35.9244 18.7071C35.7384 18.5184 35.5166 18.3685 35.2721 18.2662C35.0276 18.1639 34.7652 18.1113 34.5001 18.1113C34.2351 18.1113 33.9727 18.1639 33.7281 18.2662C33.4836 18.3685 33.2619 18.5184 33.0758 18.7071C32.8897 18.8959 32.743 19.1197 32.6442 19.3657C32.5453 19.6116 32.4964 19.8747 32.5001 20.1397V32.1397H4.50012V4.13975H16.5001C16.7651 4.1435 17.0283 4.09453 17.2742 3.99571C17.5201 3.89688 17.744 3.75016 17.9327 3.56407C18.1215 3.37798 18.2713 3.15624 18.3736 2.91172C18.4759 2.66721 18.5286 2.4048 18.5286 2.13975C18.5286 1.8747 18.4759 1.61229 18.3736 1.36778C18.2713 1.12326 18.1215 0.901518 17.9327 0.715429C17.744 0.52934 17.5201 0.382619 17.2742 0.283791C17.0283 0.184964 16.7651 0.136001 16.5001 0.139749H4.50012Z" fill="white"/>
</svg>
