<svg width="73" height="3.2rem" viewBox="0 0 73 68" fill="none" xmlns="http://www.w3.org/2000/svg">
<rect x="1.22042" y="1.22042" width="70.5592" height="65.5592" fill="#0B95DE"/>
<path d="M29.008 20.12C31.5467 20.12 33.5947 20.824 35.152 22.232C36.7307 23.64 37.5413 25.464 37.584 27.704L33.392 28.824C33.392 27.4587 32.9653 26.3813 32.112 25.592C31.2587 24.8027 30.0853 24.408 28.592 24.408C26.3093 24.3653 24.3253 25.2613 22.64 27.096C20.976 28.9307 20.1653 31.032 20.208 33.4C20.208 35.1493 20.7413 36.5573 21.808 37.624C22.8747 38.6693 24.304 39.192 26.096 39.192C27.76 39.192 29.2853 38.68 30.672 37.656C32.0587 36.6107 32.976 35.288 33.424 33.688L37.552 34.968C36.8267 37.464 35.3653 39.512 33.168 41.112C30.9707 42.6907 28.5387 43.48 25.872 43.48C22.7787 43.48 20.3147 42.5733 18.48 40.76C16.6667 38.9467 15.76 36.5787 15.76 33.656C15.7173 31.2667 16.2827 29.0267 17.456 26.936C18.6507 24.824 20.2827 23.1493 22.352 21.912C24.4213 20.6747 26.64 20.0773 29.008 20.12ZM38.0245 43L41.9925 20.6H52.2965C53.9605 20.6 55.2832 21.048 56.2645 21.944C57.2458 22.84 57.7365 24.0133 57.7365 25.464C57.7365 26.6587 57.4378 27.7787 56.8405 28.824C56.2645 29.848 55.4858 30.6373 54.5045 31.192C56.0832 32.1307 56.8725 33.5813 56.8725 35.544C56.8725 37.6347 56.1152 39.4053 54.6005 40.856C53.0858 42.2853 51.2405 43 49.0645 43H38.0245ZM44.9045 29.464H50.1845C51.1872 29.464 51.9658 29.1973 52.5205 28.664C53.0965 28.1093 53.3845 27.3733 53.3845 26.456C53.3845 25.3467 52.6485 24.792 51.1765 24.792H45.7365L44.9045 29.464ZM43.2405 38.808H48.8085C49.8325 38.808 50.6538 38.5093 51.2725 37.912C51.8912 37.2933 52.2005 36.504 52.2005 35.544C52.2005 34.1787 51.4005 33.496 49.8005 33.496H44.2005L43.2405 38.808Z" fill="white"/>
<rect x="1.22042" y="1.22042" width="70.5592" height="65.5592" stroke="#9BDAFE" strokeWidth="2.44085"/>
</svg>
