<svg width="158" height="175" viewBox="0 0 158 175" fill="none" xmlns="http://www.w3.org/2000/svg">
<g style="mix-blend-mode:soft-light" opacity="0.21">
<path d="M139.644 106.296C149.782 72.803 130.849 37.4335 97.3558 27.2958C63.8629 17.1582 28.4934 36.0914 18.3558 69.5843C8.21816 103.077 27.1513 138.447 60.6442 148.584C94.1371 158.722 129.507 139.789 139.644 106.296Z" fill="white"/>
</g>
<g style="mix-blend-mode:soft-light" opacity="0.21">
<path d="M117.179 126.121C138.255 105.046 138.255 70.8762 117.179 49.8011C96.1044 28.726 61.9349 28.726 40.8598 49.8011C19.7847 70.8762 19.7847 105.046 40.8598 126.121C61.9349 147.196 96.1044 147.196 117.179 126.121Z" fill="white"/>
</g>
<g style="mix-blend-mode:soft-light" opacity="0.21">
<path d="M121.666 100.854C128.798 77.2899 115.478 52.4059 91.9142 45.2736C68.3504 38.1413 43.4663 51.4617 36.334 75.0254C29.2018 98.5892 42.5221 123.473 66.0859 130.606C89.6497 137.738 114.534 124.417 121.666 100.854Z" fill="white"/>
</g>
<g style="mix-blend-mode:soft-light" opacity="0.21">
<path d="M113.564 94.6135C117.238 75.5333 104.749 57.0872 85.669 53.4129C66.5889 49.7386 48.1428 62.2276 44.4685 81.3078C40.7942 100.388 53.2832 118.834 72.3634 122.508C91.4435 126.183 109.89 113.694 113.564 94.6135Z" fill="white"/>
</g>
<path d="M79.0157 173.851L110.364 111.557L79.0157 126.414L47.6743 111.557L79.0157 173.851Z" fill="#E0AB4F" stroke="#011635" strokeWidth="0.988271" strokeLinecap="round" strokeLinejoin="round"/>
<path d="M79.0157 96.6992L47.6743 111.556L79.0157 126.413L110.357 111.556L79.0157 96.6992Z" fill="#F4D990" stroke="#011635" strokeWidth="0.988271" strokeLinecap="round" strokeLinejoin="round"/>
<path d="M102.78 107.965L79.0158 96.7246L55.2512 107.991C58.164 111.46 61.8008 114.249 65.9062 116.162C70.0117 118.076 74.4863 119.067 79.0158 119.067C83.5453 119.067 88.0199 118.076 92.1254 116.162C96.2309 114.249 99.8677 111.46 102.78 107.991V107.965Z" fill="#E9EBCC"/>
<path d="M79.0157 96.6992L47.6743 111.556L79.0157 126.413L110.357 111.556L79.0157 96.6992Z" stroke="#011635" strokeWidth="0.988271" strokeLinecap="round" strokeLinejoin="round"/>
<path d="M79.0154 173.851V126.414L110.357 111.557L79.0154 173.851Z" fill="#AB7435" stroke="#011635" strokeWidth="0.988271" strokeLinecap="round" strokeLinejoin="round"/>
<path d="M103.682 98.1784C109.324 84.5567 102.855 68.9401 89.2337 63.2978C75.6119 57.6555 59.9953 64.1241 54.353 77.7458C48.7107 91.3676 55.1793 106.984 68.8011 112.626C82.4228 118.269 98.0394 111.8 103.682 98.1784Z" fill="#F8EBB8"/>
<path d="M57.2937 72.4464L79.0357 82.3291L100.778 72.4464C98.3094 68.9867 95.0505 66.1665 91.2722 64.2207C87.4938 62.2749 83.3054 61.2598 79.0554 61.2598C74.8055 61.2598 70.617 62.2749 66.8387 64.2207C63.0603 66.1665 59.8014 68.9867 57.3332 72.4464H57.2937Z" fill="#FBF3A4"/>
<path d="M103.682 98.1784C109.324 84.5567 102.855 68.9401 89.2337 63.2978C75.6119 57.6555 59.9953 64.1241 54.353 77.7458C48.7107 91.3676 55.1793 106.984 68.8011 112.626C82.4228 118.269 98.0394 111.8 103.682 98.1784Z" stroke="#011635" strokeWidth="0.988271" strokeLinecap="round" strokeLinejoin="round"/>
<path d="M66.4407 101.922V80.3951H68.3488L73.3391 95.048L73.0822 88.8223V80.3951H75.3205V101.922H73.4614L68.6301 87.1467L68.7769 92.5773V101.922H66.4407ZM78.8431 101.922V80.3951H85.3256V82.5111H81.3627V89.3116H85.081V91.452H81.3627V101.922H78.8431ZM88.8971 101.922V82.4988H86.5243V80.3951H93.6305V82.4988H91.4167V101.922H88.8971Z" fill="#011635"/>
<path d="M79.0157 0.830078L47.6743 63.1241L79.0157 77.3552L110.364 63.1241L79.0157 0.830078Z" fill="#F4D170" stroke="#011635" strokeWidth="0.988271" strokeLinecap="round" strokeLinejoin="round"/>
<path d="M79.0154 77.3552L110.363 63.1241L79.0154 0.830078V77.3552Z" fill="#E0AB4F" stroke="#011635" strokeWidth="0.988271" strokeLinecap="round" strokeLinejoin="round"/>
</svg>
