<svg width="28" height="29" viewBox="0 0 28 29" fill="none" xmlns="http://www.w3.org/2000/svg">
<path d="M14 0.172241C12.8201 0.172241 11.7711 0.693131 11.039 1.50557H8.66923C7.75856 1.50557 7.1156 2.39812 7.4036 3.26078L7.99735 5.04985C8.08802 5.32185 8.3461 5.50557 8.63277 5.50557H14H19.3671C19.6538 5.50557 19.9093 5.32185 20 5.04985L20.5963 3.26078C20.8856 2.39812 20.2414 1.50557 19.3307 1.50557H16.9609C16.2288 0.693131 15.1798 0.172241 14 0.172241ZM8.66663 8.17224C8.66663 8.17224 0.666626 12.1909 0.666626 21.5056C0.666626 22.6189 0.803793 23.6074 1.06246 24.4847C1.71713 26.7034 3.82985 28.1722 6.14319 28.1722H21.8567C24.1701 28.1722 26.2828 26.7034 26.9375 24.4847C27.1961 23.6074 27.3333 22.6189 27.3333 21.5056C27.3333 12.1922 19.3333 8.17224 19.3333 8.17224H8.66663ZM14.427 10.4561H14.4349C14.7709 10.4561 15.0442 10.7295 15.0442 11.0655V12.2269C15.3682 12.2883 16.9252 12.6424 17.4479 14.5837C17.6399 15.2984 17.085 15.9978 16.3463 15.9978C15.8183 15.9978 15.3515 15.6336 15.2395 15.1176C15.0489 14.2282 14.5671 14.0655 14.3125 14.0655C14.0605 14.0655 13.3958 14.1063 13.3958 15.4769C13.3958 17.8689 17.6015 17.1238 17.6015 21.0238C17.6015 23.8558 15.2765 24.2374 14.8645 24.2894V25.2972C14.8645 25.6332 14.5912 25.9066 14.2552 25.9066C13.9192 25.9066 13.6458 25.6332 13.6458 25.2972V24.2894C13.3245 24.2454 11.4416 24.0364 10.875 21.8337C10.6923 21.1244 11.2497 20.4379 11.9817 20.4379H11.9843C12.5097 20.4379 12.9844 20.793 13.0937 21.3077C13.3457 22.4903 14.1114 22.4301 14.2474 22.4301C14.426 22.4301 15.3046 22.3968 15.3046 21.0394C15.3046 18.3274 11.0963 19.5318 11.0963 15.4665C11.0963 12.6798 13.4057 12.2451 13.8177 12.1931V11.0655C13.8177 10.7295 14.091 10.4561 14.427 10.4561Z" fill="#0E3A96"/>
</svg>
