<svg width="25" height="25" viewBox="0 0 25 25" fill="none" xmlns="http://www.w3.org/2000/svg">
<rect x="0.619141" y="0.75" width="24" height="24" rx="12" fill="black"/>
<path d="M12.6192 6.10385C12.5278 6.10385 12.4511 6.15067 12.4007 6.21851C12.3965 6.22405 12.3894 6.22594 12.3856 6.23204L8.50863 12.3243C8.50393 12.3315 8.50332 12.3407 8.49944 12.3481C8.49058 12.3656 8.48469 12.3829 8.47943 12.4017C8.475 12.418 8.47108 12.434 8.46969 12.4509C8.46831 12.4697 8.4699 12.4878 8.47239 12.5072C8.47378 12.518 8.47071 12.5291 8.47348 12.5396C8.47542 12.5471 8.48072 12.553 8.48321 12.5602C8.4857 12.5674 8.48476 12.5751 8.48808 12.5823C8.49279 12.5931 8.50119 12.6 8.50701 12.6099C8.51615 12.6257 8.52565 12.6407 8.53784 12.6543C8.55113 12.6692 8.56587 12.6816 8.58165 12.6932C8.59023 12.6996 8.59577 12.7085 8.60491 12.7138L12.4818 14.9292C12.4879 14.9328 12.4949 14.9342 12.5013 14.9373C12.5088 14.9409 12.516 14.9434 12.524 14.9465C12.5548 14.9575 12.5868 14.9654 12.6192 14.9654C12.6516 14.9654 12.6837 14.9578 12.7144 14.9465C12.7224 14.9434 12.7294 14.9403 12.7371 14.9367C12.7435 14.9337 12.7505 14.9322 12.7566 14.9286L16.6335 12.7132C16.6352 12.7121 16.6362 12.7103 16.6378 12.7094C16.6661 12.6925 16.6909 12.6708 16.7119 12.6445C16.7169 12.6382 16.7202 12.6309 16.7249 12.624C16.7341 12.6104 16.7442 12.5978 16.7509 12.5823C16.7539 12.5751 16.7527 12.5676 16.7552 12.5602C16.7577 12.553 16.763 12.5471 16.7649 12.5396C16.7674 12.5291 16.7652 12.518 16.7666 12.5072C16.7691 12.4878 16.7704 12.4695 16.7687 12.4504C16.7673 12.4335 16.7634 12.4175 16.759 12.4011C16.7537 12.3823 16.7481 12.365 16.739 12.3476C16.7351 12.3401 16.7342 12.3315 16.7298 12.3243L12.8529 6.23204C12.8493 6.22622 12.8419 6.22378 12.8377 6.21851C12.7873 6.15067 12.7106 6.10385 12.6192 6.10385ZM12.6192 6.81347V11.0885L15.8763 12.5088L12.6192 14.4115V11.0885L9.17498 12.2827L12.6192 6.81347ZM8.69794 13.5846C8.63691 13.5945 8.57929 13.6251 8.53568 13.6738C8.44872 13.7716 8.44191 13.9169 8.51945 14.0221L12.3964 19.2837C12.4 19.2884 12.4058 19.29 12.4094 19.2945C12.4279 19.3169 12.4502 19.3341 12.4748 19.3496C12.4842 19.3557 12.4916 19.3633 12.5018 19.368C12.5378 19.3849 12.5768 19.3962 12.6192 19.3962C12.6616 19.3962 12.7006 19.3849 12.7366 19.368C12.7465 19.3633 12.7542 19.3555 12.7636 19.3496C12.7883 19.3341 12.8105 19.3169 12.8291 19.2945C12.8327 19.29 12.8387 19.2884 12.842 19.2837L16.719 14.0221C16.7965 13.9169 16.79 13.7716 16.7027 13.6738C16.6158 13.5758 16.472 13.5528 16.3588 13.6176L12.6192 15.7545L8.87967 13.6176C8.82317 13.5854 8.75896 13.5747 8.69794 13.5846ZM9.74235 14.7485L12.6192 16.4365V18.6005L9.74235 14.7485Z" fill="white"/>
</svg>