<svg width="50" height="50" viewBox="0 -18 57 90" fill="none" xmlns="http://www.w3.org/2000/svg">
<path d="M55.0842 0.709969C54.3314 0.7324 53.6169 1.04701 53.0921 1.58715L43.0526 11.6267L40.5059 9.08001C37.223 5.7971 31.4998 5.7942 28.214 9.08001L24.7166 12.5774L22.4189 10.2798C22.1489 10.0022 21.826 9.78158 21.4693 9.63091C21.1126 9.48025 20.7292 9.40261 20.342 9.40259C19.7656 9.40274 19.2023 9.57479 18.7242 9.89675C18.2461 10.2187 17.8748 10.6759 17.6579 11.21C17.441 11.744 17.3883 12.3306 17.5065 12.8948C17.6248 13.459 17.9086 13.9751 18.3216 14.3771L44.3995 40.4549C44.6665 40.733 44.9863 40.9551 45.3402 41.108C45.694 41.261 46.0749 41.3418 46.4604 41.3457C46.8459 41.3496 47.2283 41.2766 47.5852 41.1309C47.9421 40.9851 48.2663 40.7697 48.5389 40.4971C48.8115 40.2245 49.027 39.9002 49.1727 39.5433C49.3184 39.1864 49.3915 38.804 49.3875 38.4185C49.3836 38.033 49.3028 37.6522 49.1499 37.2983C48.9969 36.9444 48.7749 36.6246 48.4968 36.3576L46.1992 34.06L49.6966 30.5626C53.0867 27.1724 53.0867 21.6608 49.6966 18.2707L47.1499 15.724L57.1894 5.68446C57.6081 5.27746 57.8941 4.75347 58.0099 4.18115C58.1257 3.60883 58.0659 3.01488 57.8383 2.47713C57.6107 1.93939 57.226 1.48294 56.7345 1.16761C56.2431 0.852271 55.6678 0.692757 55.0842 0.709969ZM11.6494 18.0952C11.073 18.0954 10.5097 18.2674 10.0316 18.5894C9.55344 18.9113 9.1822 19.3686 8.9653 19.9026C8.74839 20.4367 8.69569 21.0233 8.81392 21.5874C8.93215 22.1516 9.21595 22.6677 9.62902 23.0697L11.9267 25.3674L8.42926 28.8648C5.03914 32.2549 5.03914 37.7666 8.42926 41.1567L10.9759 43.7034L0.936402 53.7429C0.658315 54.0099 0.436297 54.3297 0.283351 54.6835C0.130405 55.0374 0.0496042 55.4183 0.0456822 55.8037C0.0417602 56.1892 0.114795 56.5716 0.26051 56.9285C0.406225 57.2855 0.62169 57.6097 0.894287 57.8823C1.16688 58.1549 1.49113 58.3704 1.84804 58.5161C2.20496 58.6618 2.58735 58.7348 2.97284 58.7309C3.35834 58.727 3.73917 58.6462 4.09304 58.4932C4.44691 58.3403 4.76671 58.1183 5.03371 57.8402L15.0732 47.8007L17.6199 50.3473C19.2599 51.9873 21.442 52.894 23.7659 52.894C26.0868 52.894 28.2718 51.9902 29.9118 50.3473L33.4092 46.8499L35.7069 49.1476C35.9739 49.4257 36.2937 49.6477 36.6476 49.8006C37.0014 49.9536 37.3823 50.0344 37.7677 50.0383C38.1532 50.0422 38.5356 49.9692 38.8926 49.8235C39.2495 49.6778 39.5737 49.4623 39.8463 49.1897C40.1189 48.9171 40.3344 48.5928 40.4801 48.2359C40.6258 47.879 40.6988 47.4966 40.6949 47.1111C40.691 46.7256 40.6102 46.3448 40.4572 45.9909C40.3043 45.6371 40.0823 45.3173 39.8042 45.0503L13.7263 18.9724C13.4563 18.6948 13.1334 18.4742 12.7767 18.3235C12.4199 18.1729 12.0366 18.0952 11.6494 18.0952Z" fill="white" fillOpacity="0.84"/>
</svg>
