<svg width="50" height="50" viewBox="0 -18 57 90" fill="none" xmlns="http://www.w3.org/2000/svg">
<path d="M29.0269 58.6891C28.1997 58.6891 27.3722 58.3756 26.7406 57.744L18.6139 49.6173C17.6838 48.6872 18.3483 47.0989 19.6608 47.0989H26.1294V41.3038C26.1239 40.9199 26.1949 40.5386 26.3381 40.1823C26.4812 39.826 26.6938 39.5017 26.9634 39.2283C27.233 38.9549 27.5543 38.7377 27.9085 38.5895C28.2628 38.4413 28.6429 38.365 29.0269 38.365C29.4109 38.365 29.7911 38.4413 30.1453 38.5895C30.4996 38.7377 30.8208 38.9549 31.0904 39.2283C31.36 39.5017 31.5726 39.826 31.7158 40.1823C31.859 40.5386 31.9299 40.9199 31.9245 41.3038V47.0989H38.393C39.7056 47.0989 40.3701 48.6872 39.44 49.6173L31.3133 57.744C30.6816 58.3756 29.8542 58.6891 29.0269 58.6891ZM2.94905 35.5087C1.34961 35.5087 0.0515137 34.2106 0.0515137 32.6112V3.63578C0.0515137 2.03634 1.34961 0.738243 2.94905 0.738243H55.1048C56.7042 0.738243 58.0023 2.03634 58.0023 3.63578V32.6112C58.0023 34.2106 56.7042 35.5087 55.1048 35.5087H2.94905ZM8.48947 29.7136H49.5644C49.7806 29.1043 50.13 28.5508 50.5872 28.0936C51.0444 27.6364 51.5979 27.287 52.2072 27.0708V9.1762C51.5979 8.96 51.0444 8.61057 50.5872 8.15336C50.13 7.69616 49.7806 7.1427 49.5644 6.53333H8.48947C8.27327 7.1427 7.92383 7.69616 7.46663 8.15336C7.00942 8.61057 6.45597 8.96 5.84659 9.1762V27.0708C6.45597 27.287 7.00942 27.6364 7.46663 28.0936C7.92383 28.5508 8.27327 29.1043 8.48947 29.7136ZM29.0269 26.8161C26.7215 26.8161 24.5105 25.9003 22.8803 24.2701C21.2501 22.6399 20.3343 20.4289 20.3343 18.1235C20.3343 15.8181 21.2501 13.6071 22.8803 11.9769C24.5105 10.3467 26.7215 9.43087 29.0269 9.43087C31.3323 9.43087 33.5434 10.3467 35.1735 11.9769C36.8037 13.6071 37.7195 15.8181 37.7195 18.1235C37.7195 20.4289 36.8037 22.6399 35.1735 24.2701C33.5434 25.9003 31.3323 26.8161 29.0269 26.8161ZM14.5392 21.021C12.9398 21.021 11.6417 19.7258 11.6417 18.1235C11.6417 16.5211 12.9398 15.2259 14.5392 15.2259C16.1387 15.2259 17.4368 16.5211 17.4368 18.1235C17.4368 19.7258 16.1387 21.021 14.5392 21.021ZM43.5146 21.021C41.9152 21.021 40.6171 19.7258 40.6171 18.1235C40.6171 16.5211 41.9152 15.2259 43.5146 15.2259C45.1141 15.2259 46.4122 16.5211 46.4122 18.1235C46.4122 19.7258 45.1141 21.021 43.5146 21.021Z" fill="white" fillOpacity="0.84"/>
</svg>
