<svg width="49" height="50" viewBox="5 -15 49 76" fill="none" xmlns="http://www.w3.org/2000/svg">
<path d="M52.896 23.7138C52.896 26.2636 54.5476 28.4426 56.854 29.2133C58.0014 29.5958 58.691 30.778 58.691 31.9863V41.099C58.691 44.2863 56.1122 46.8941 52.896 46.8941H6.53532C3.34802 46.8941 0.740234 44.2863 0.740234 41.099V31.9718C0.740234 30.7693 1.42695 29.5929 2.56569 29.2133C4.86633 28.4426 6.53532 26.2636 6.53532 23.7138C6.53532 21.1639 4.86633 18.985 2.56569 18.2143C1.42695 17.8347 0.740234 16.6583 0.740234 15.4558V6.32854C0.740234 3.14125 3.34802 0.533463 6.53532 0.533463H52.896C56.0977 0.533463 58.691 3.12676 58.691 6.32854V15.4413C58.691 16.6525 58.0014 17.8318 56.854 18.2143C54.5476 18.985 52.896 21.1639 52.896 23.7138Z" fill="white" fillOpacity="0.84"/>
</svg>
