<svg width="49" height="50" viewBox="0 -4 49 70" fill="none" xmlns="http://www.w3.org/2000/svg">
<path d="M11.3025 0.744003C10.7446 0.744003 10.1846 0.974901 9.75954 1.44575L0.80337 12.1474C-0.180184 13.3209 0.570274 15.226 2.01422 15.226H8.67642V29.7137C8.67152 30.0977 8.73556 30.4789 8.86482 30.8352C8.99407 31.1915 9.18597 31.5158 9.42936 31.7893C9.67275 32.0627 9.96278 32.2798 10.2826 32.428C10.6024 32.5762 10.9456 32.6526 11.2923 32.6526C11.6389 32.6526 11.9821 32.5762 12.3019 32.428C12.6217 32.2798 12.9118 32.0627 13.1551 31.7893C13.3985 31.5158 13.5904 31.1915 13.7197 30.8352C13.849 30.4789 13.913 30.0977 13.9081 29.7137V15.226H20.5856C22.0322 15.226 22.7826 13.3209 21.7965 12.1474L12.8403 1.44575C12.4152 0.974901 11.8603 0.744003 11.3025 0.744003ZM37.4506 3.63588C36.0067 3.63588 34.8348 4.93398 34.8348 6.53342C34.8348 8.13287 36.0067 9.43097 37.4506 9.43097C38.8945 9.43097 40.0664 8.13287 40.0664 6.53342C40.0664 4.93398 38.8945 3.63588 37.4506 3.63588ZM37.4506 15.226C36.0067 15.226 34.8348 16.5241 34.8348 18.1236C34.8348 19.723 36.0067 21.0211 37.4506 21.0211C38.8945 21.0211 40.0664 19.723 40.0664 18.1236C40.0664 16.5241 38.8945 15.226 37.4506 15.226ZM37.4097 26.7766C36.7169 26.7886 36.0566 27.1046 35.5738 27.6553C35.0911 28.2059 34.8253 28.9462 34.8348 29.7137V44.2015H28.1726C26.7286 44.2015 25.9782 46.1066 26.9617 47.2801L35.9179 57.9817C36.768 58.9234 38.1485 58.9234 38.9986 57.9817L47.9548 47.2801C48.941 46.1066 48.1905 44.2015 46.744 44.2015H40.0664V29.7137C40.0712 29.3261 40.0058 28.9413 39.8739 28.5822C39.742 28.2231 39.5464 27.8969 39.2987 27.623C39.0509 27.3491 38.7561 27.1331 38.4317 26.9877C38.1072 26.8423 37.7597 26.7705 37.4097 26.7766ZM11.2923 38.4064C9.84832 38.4064 8.67642 39.7045 8.67642 41.3039C8.67642 42.9034 9.84832 44.2015 11.2923 44.2015C12.7362 44.2015 13.9081 42.9034 13.9081 41.3039C13.9081 39.7045 12.7362 38.4064 11.2923 38.4064ZM11.2923 49.9965C9.84832 49.9965 8.67642 51.2946 8.67642 52.8941C8.67642 54.4935 9.84832 55.7916 11.2923 55.7916C12.7362 55.7916 13.9081 54.4935 13.9081 52.8941C13.9081 51.2946 12.7362 49.9965 11.2923 49.9965Z" fill="#9BDAFE"/>
</svg>
