<svg width="50" height="50" viewBox="0 -18 57 90" fill="none" xmlns="http://www.w3.org/2000/svg">
<path d="M55.1204 0.709969C54.3677 0.7324 53.6532 1.04701 53.1284 1.58715L43.0889 11.6267L40.5422 9.08001C37.2593 5.7971 31.5361 5.7942 28.2503 9.08001L24.7529 12.5774L22.4552 10.2798C22.1852 10.0022 21.8623 9.78158 21.5055 9.63091C21.1488 9.48025 20.7655 9.40261 20.3783 9.40259C19.8018 9.40274 19.2386 9.57479 18.7604 9.89675C18.2823 10.2187 17.9111 10.6759 17.6942 11.21C17.4773 11.744 17.4246 12.3306 17.5428 12.8948C17.661 13.459 17.9448 13.9751 18.3579 14.3771L44.4358 40.4549C44.7028 40.733 45.0226 40.9551 45.3764 41.108C45.7303 41.261 46.1111 41.3418 46.4966 41.3457C46.8821 41.3496 47.2645 41.2766 47.6214 41.1309C47.9783 40.9851 48.3026 40.7697 48.5752 40.4971C48.8478 40.2245 49.0633 39.9002 49.209 39.5433C49.3547 39.1864 49.4277 38.804 49.4238 38.4185C49.4199 38.033 49.3391 37.6522 49.1861 37.2983C49.0332 36.9444 48.8112 36.6246 48.5331 36.3576L46.2354 34.06L49.7328 30.5626C53.1229 27.1724 53.1229 21.6608 49.7328 18.2707L47.1862 15.724L57.2257 5.68446C57.6444 5.27746 57.9304 4.75347 58.0462 4.18115C58.1619 3.60883 58.1021 3.01488 57.8745 2.47713C57.647 1.93939 57.2622 1.48294 56.7708 1.16761C56.2794 0.852271 55.7041 0.692757 55.1204 0.709969ZM11.6856 18.0952C11.1092 18.0954 10.5459 18.2674 10.0678 18.5894C9.58969 18.9113 9.21845 19.3686 9.00155 19.9026C8.78465 20.4367 8.73195 21.0233 8.85018 21.5874C8.96841 22.1516 9.2522 22.6677 9.66528 23.0697L11.9629 25.3674L8.46552 28.8648C5.07539 32.2549 5.07539 37.7666 8.46552 41.1567L11.0122 43.7034L0.972657 53.7429C0.69457 54.0099 0.472552 54.3297 0.319606 54.6835C0.16666 55.0374 0.0858591 55.4183 0.0819371 55.8037C0.0780151 56.1892 0.15105 56.5716 0.296765 56.9285C0.44248 57.2855 0.657945 57.6097 0.930542 57.8823C1.20314 58.1549 1.52739 58.3704 1.8843 58.5161C2.24121 58.6618 2.62361 58.7348 3.0091 58.7309C3.39459 58.727 3.77542 58.6462 4.1293 58.4932C4.48317 58.3403 4.80297 58.1183 5.06996 57.8402L15.1095 47.8007L17.6562 50.3473C19.2962 51.9873 21.4783 52.894 23.8021 52.894C26.123 52.894 28.3081 51.9902 29.9481 50.3473L33.4455 46.8499L35.7431 49.1476C36.0101 49.4257 36.3299 49.6477 36.6838 49.8006C37.0377 49.9536 37.4185 50.0344 37.804 50.0383C38.1895 50.0422 38.5719 49.9692 38.9288 49.8235C39.2857 49.6778 39.61 49.4623 39.8826 49.1897C40.1552 48.9171 40.3706 48.5928 40.5163 48.2359C40.6621 47.879 40.7351 47.4966 40.7312 47.1111C40.7273 46.7256 40.6465 46.3448 40.4935 45.9909C40.3406 45.6371 40.1185 45.3173 39.8404 45.0503L13.7626 18.9724C13.4926 18.6948 13.1696 18.4742 12.8129 18.3235C12.4562 18.1729 12.0729 18.0952 11.6856 18.0952Z" fill="white" fillOpacity="0.84"/>
</svg>
