<svg width="1920" height="302" viewBox="0 0 1920 302" fill="none" xmlns="http://www.w3.org/2000/svg">
<path d="M1673.81 28.9296H1683.17C1683.17 26.2397 1684.23 23.66 1686.14 21.758C1688.04 19.856 1690.62 18.7874 1693.31 18.7874V11.1402C1690.62 11.1402 1688.04 10.0717 1686.14 8.16966C1684.23 6.26763 1683.17 3.68792 1683.17 0.998047H1673.81C1673.81 3.68792 1672.75 6.26763 1670.84 8.16966C1668.94 10.0717 1666.36 11.1402 1663.67 11.1402V18.6454C1665.02 18.6453 1666.35 18.9123 1667.59 19.4308C1668.83 19.9494 1669.95 20.7091 1670.89 21.666C1671.84 22.6229 1672.58 23.7578 1673.08 25.0047C1673.58 26.2517 1673.83 27.5858 1673.81 28.9296Z" fill="#1A2D59"/>
<path d="M1680.14 25.2383H1677.87V190.862H1680.14V25.2383Z" fill="#1A2D59"/>
<path d="M1633.65 50.8769H1643C1643 48.187 1644.07 45.6073 1645.97 43.7053C1647.87 41.8032 1650.45 40.7347 1653.14 40.7347V33.0875C1650.45 33.0875 1647.87 32.0189 1645.97 30.1169C1644.07 28.2149 1643 25.6352 1643 22.9453H1633.65C1633.65 25.6352 1632.58 28.2149 1630.68 30.1169C1628.78 32.0189 1626.2 33.0875 1623.51 33.0875V40.7347C1626.2 40.7347 1628.78 41.8032 1630.68 43.7053C1632.58 45.6073 1633.65 48.187 1633.65 50.8769Z" fill="#1A2D59"/>
<path d="M1639.9 47.1855H1637.63V198.244H1639.9V47.1855Z" fill="#1A2D59"/>
<path d="M1593.43 72.8251H1602.82C1602.82 70.1352 1603.89 67.5555 1605.79 65.6535C1607.69 63.7515 1610.27 62.6829 1612.96 62.6829V55.0357C1610.27 55.0357 1607.69 53.9672 1605.79 52.0652C1603.89 50.1631 1602.82 47.5834 1602.82 44.8936H1593.49C1593.49 47.5834 1592.42 50.1631 1590.52 52.0652C1588.62 53.9672 1586.04 55.0357 1583.35 55.0357V62.6829C1586.03 62.699 1588.59 63.7746 1590.48 65.6749C1592.37 67.5752 1593.43 70.1458 1593.43 72.8251Z" fill="#1A2D59"/>
<path d="M1599.65 69.1328H1597.38V193.211H1599.65V69.1328Z" fill="#1A2D59"/>
<path d="M1553.18 94.7529H1562.53C1562.53 92.063 1563.6 89.4833 1565.5 87.5812C1567.41 85.6792 1569.99 84.6107 1572.68 84.6107V76.9635C1569.99 76.9635 1567.41 75.8949 1565.5 73.9929C1563.6 72.0909 1562.53 69.5112 1562.53 66.8213H1553.18C1553.18 69.5112 1552.11 72.0909 1550.21 73.9929C1548.31 75.8949 1545.73 76.9635 1543.04 76.9635V84.6107C1545.73 84.6107 1548.31 85.6792 1550.21 87.5812C1552.11 89.4833 1553.18 92.063 1553.18 94.7529Z" fill="#1A2D59"/>
<path d="M1559.43 91.0811H1557.16V211.468H1559.43V91.0811Z" fill="#1A2D59"/>
<path d="M246.187 28.9296H236.836C236.836 26.2397 235.767 23.66 233.865 21.758C231.963 19.856 229.383 18.7874 226.693 18.7874V11.1402C229.383 11.1402 231.963 10.0717 233.865 8.16966C235.767 6.26763 236.836 3.68792 236.836 0.998047H246.187C246.187 3.68792 247.255 6.26763 249.157 8.16966C251.059 10.0717 253.639 11.1402 256.329 11.1402V18.6454C254.985 18.6453 253.654 18.9123 252.414 19.4308C251.175 19.9494 250.05 20.7091 249.107 21.666C248.163 22.6229 247.419 23.7578 246.918 25.0047C246.416 26.2517 246.168 27.5858 246.187 28.9296Z" fill="#1A2D59"/>
<path d="M242.231 25.2383H239.959V186.559H242.231V25.2383Z" fill="#1A2D59"/>
<path d="M286.431 50.8769H276.998C276.998 48.187 275.93 45.6073 274.028 43.7053C272.126 41.8032 269.546 40.7347 266.856 40.7347V33.0875C269.546 33.0875 272.126 32.0189 274.028 30.1169C275.93 28.2149 276.998 25.6352 276.998 22.9453H286.349C286.349 25.6352 287.418 28.2149 289.32 30.1169C291.222 32.0189 293.802 33.0875 296.492 33.0875V40.7347C293.816 40.7561 291.257 41.8341 289.372 43.7338C287.488 45.6335 286.431 48.201 286.431 50.8769Z" fill="#1A2D59"/>
<path d="M282.475 47.1855H280.204V186.559H282.475V47.1855Z" fill="#1A2D59"/>
<path d="M326.675 72.8251H317.324C317.324 70.1352 316.255 67.5555 314.353 65.6535C312.451 63.7515 309.872 62.6829 307.182 62.6829V55.0357C309.872 55.0357 312.451 53.9672 314.353 52.0652C316.255 50.1631 317.324 47.5834 317.324 44.8936H326.675C326.675 47.5834 327.744 50.1631 329.646 52.0652C331.548 53.9672 334.127 55.0357 336.817 55.0357V62.6829C334.127 62.6829 331.548 63.7515 329.646 65.6535C327.744 67.5555 326.675 70.1352 326.675 72.8251Z" fill="#1A2D59"/>
<path d="M322.72 69.1328H320.448V198.385H322.72V69.1328Z" fill="#1A2D59"/>
<path d="M366.899 94.7529H357.568C357.568 92.063 356.499 89.4833 354.597 87.5812C352.695 85.6792 350.116 84.6107 347.426 84.6107V76.9635C350.116 76.9635 352.695 75.8949 354.597 73.9929C356.499 72.0909 357.568 69.5112 357.568 66.8213H366.899C366.899 69.5112 367.967 72.0909 369.869 73.9929C371.771 75.8949 374.351 76.9635 377.041 76.9635V84.6107C374.351 84.6107 371.771 85.6792 369.869 87.5812C367.967 89.4833 366.899 92.063 366.899 94.7529Z" fill="#1A2D59"/>
<path d="M362.943 91.0811H360.671V194.376H362.943V91.0811Z" fill="#1A2D59"/>
<path d="M1920 305.41V224.234C1598.46 240.915 1273.98 242.88 946.662 243.69C800.742 244.063 653.696 244.392 508.083 242.383C336.922 240.023 167.91 232.513 0 224.234V305.41H1920Z" fill="#1A2D59"/>
<path d="M1920 225.052C1603.38 275.672 1284.17 283.482 960 285.832C807.552 286.942 653.158 288.052 501.043 280.682C331.802 272.472 165.274 249.802 0 225.052V252.572C167.91 274.742 336.922 294.852 508.083 301.172C653.696 306.552 800.87 305.642 946.662 304.672C1273.98 302.502 1598.46 297.242 1920 252.572V225.052Z" fill="#6BCCE3"/>
<path d="M1920 116.382C1753.11 161.722 1578.83 196.012 1399.88 211.892C1250.61 225.132 1097.45 225.152 947.2 224.952C796.954 224.752 643.072 224.722 494.08 208.952C324.608 191.012 161.28 154.632 0 116.382V222.772C165.299 247.112 331.878 269.412 501.043 277.362C653.21 284.502 807.526 283.362 960 282.292C1283.99 279.912 1603.28 272.462 1920 222.772V116.382Z" fill="#8DD4EF"/>
<path d="M1920 122.382C1753.11 167.722 1578.83 202.012 1399.88 217.892C1250.61 231.132 1097.45 231.152 947.2 230.952C796.954 230.752 643.072 230.722 494.08 214.952C324.608 197.012 161.28 160.632 0 122.382V228.772C165.299 253.112 331.878 275.412 501.043 283.362C653.21 290.502 807.526 289.362 960 288.292C1283.99 285.912 1603.28 278.462 1920 228.772V122.382Z" fill="#1A2D59"/>
<path d="M1920 194.352C1604.33 253.352 1286.07 264.532 960 266.562C807.603 267.512 652.8 268.562 500.992 259.252C331.162 248.862 164.813 222.662 0 194.352V208.232C165.018 234.882 331.469 259.422 501.018 268.772C653.005 277.152 807.578 276.072 960 275.042C1285.12 272.832 1603.89 263.272 1920 208.232V194.352Z" fill="#6BCCE3"/>
<path d="M1920 154.191C1605.91 226.301 1289.86 243.521 960 244.691C807.629 245.231 652.365 245.961 500.941 233.541C330.24 219.521 164.07 187.951 0 154.191V167.301C164.326 199.141 330.47 228.871 500.966 241.591C652.544 252.951 807.629 252.051 960 251.351C1288.4 249.831 1605.35 234.801 1920 167.351V154.191Z" fill="#6BCCE3"/>
</svg>
