<svg width="137" height="152" viewBox="0 0 137 152" fill="none" xmlns="http://www.w3.org/2000/svg">
<path d="M126.003 42.8783L114.633 41.4442C120.481 37.925 122.449 33.4702 115.621 29.822C101.327 22.1969 106.196 18.3581 97.1895 10.4662C91.4326 5.42194 81.218 20.1881 74.6077 31.4995L74.511 31.4848C76.5932 18.5575 77.1827 0.937849 64.8331 1.1842C45.3747 1.57424 46.9436 0.547804 36.6792 2.46579C31.0191 3.52449 32.8374 14.003 38.2013 24.1413C28.1803 21.0327 18.0126 19.5898 13.379 24.2029C6.25254 31.2942 6.69534 37.4968 13.2382 40.3327L0 42.0425L2.03531 58.0521L4.98851 57.6386L13.2881 151.051H117.927L123.921 56.9523L124.801 57.0461L126.003 42.8783Z" fill="#006837"/>
<path d="M80.2264 45.2747C80.2264 45.2747 93.3912 -0.402038 73.2114 0.00267362C53.0315 0.407385 54.665 -0.65718 43.9988 1.33412C33.3326 3.32542 48.2776 37.591 64.3517 43.3625C80.4258 49.1341 80.2264 45.2747 80.2264 45.2747Z" fill="url(#paint0_linear_1247_5439)"/>
<path d="M65.3226 42.5582C65.3226 42.5582 54.5977 2.54162 44.8319 3.11349C35.066 3.68537 45.4917 24.487 52.9671 32.9448C60.4426 41.4027 65.3226 42.5582 65.3226 42.5582Z" fill="#CC181F"/>
<path d="M76.772 43.548C76.772 43.548 97.424 1.4492 106.768 9.62848C116.111 17.8078 111.058 21.7786 125.88 29.6969C140.702 37.6152 115.563 49.2228 97.1777 47.8121C78.7926 46.4015 76.772 43.548 76.772 43.548Z" fill="url(#paint1_linear_1247_5439)"/>
<path d="M80.5903 43.5422C80.5903 43.5422 118.278 25.6968 126.968 33.14C135.658 40.5832 108.533 46.3664 99.1074 46.2081C89.6817 46.0497 80.5903 43.5422 80.5903 43.5422Z" fill="#CC181F"/>
<path d="M72.3757 35.1326C72.3757 35.1326 30.9016 12.8617 19.8365 23.8711C8.77146 34.8804 15.2997 43.8134 34.3006 42.13C53.3015 40.4466 72.3757 35.1326 72.3757 35.1326Z" fill="url(#paint2_linear_1247_5439)"/>
<path d="M67.2052 37.4414V145.376H19.7659L9.68628 43.9666L67.2052 37.4414Z" fill="#4FB244"/>
<path d="M67.2056 37.4414L135.397 45.1515L128.282 145.376H67.2056V37.4414Z" fill="#90CB42"/>
<path d="M128.572 62.6399L120.196 62.3436L115.205 69.0712L112.9 61.0151L104.955 58.3464L111.906 53.6658L111.991 45.2871L118.589 50.4486L126.587 47.9383L123.716 55.8125L128.572 62.6399Z" fill="#50B343"/>
<path d="M11.743 61.2461L67.2061 53.495V37.4414L54.7509 38.855L9.76929 44.6617L11.743 61.2461Z" fill="#388F31"/>
<path d="M5.96533 42.3851L8.07392 58.99L67.4786 50.6875L67.2058 34.4785L5.96533 42.3851Z" fill="#4DB047"/>
<path d="M134.15 59.7788L135.397 45.1505L67.2205 37.4434L67.4785 52.664L134.15 59.7788Z" fill="#67A530"/>
<path d="M67.2056 34.4785L136.649 43.2355L135.397 57.9342L67.4783 50.6875L67.2056 34.4785Z" fill="#8FC946"/>
<path d="M68.3524 79.4929C68.3524 101.438 67.9594 119.225 67.4726 119.225C66.9858 119.225 66.5928 101.438 66.5928 79.4929C66.5928 57.5475 66.9858 39.7637 67.4726 39.7637C67.7072 39.7637 68.4756 44.0102 68.6457 50.8258C68.6457 50.8258 68.0415 50.5706 68.1061 51.4915C68.6046 58.6473 68.3524 68.5569 68.3524 79.4929Z" fill="#C2E97C"/>
<path d="M29.6847 77.7006L23.743 76.3398L19.253 80.4632L18.7134 74.3925L13.4053 71.3953L19.0126 69.0052L20.2209 63.0312L24.2269 67.6239L30.2829 66.9288L27.1508 72.1578L29.6847 77.7006Z" fill="#8FC946"/>
<path d="M54.9849 67.9495L52.5977 65.4861L49.2134 66.055L50.8205 63.0226L49.2339 59.9785L52.6153 60.5709L55.0172 58.1191L55.5011 61.5181L58.5745 63.0461L55.4894 64.5564L54.9849 67.9495Z" fill="#8FC946"/>
<path d="M55.5133 103.53L47.7651 103.648L43.4658 110.097L40.9612 102.765L33.5005 100.668L39.7002 96.0197L39.3864 88.2773L45.7239 92.738L52.9912 90.0458L50.7095 97.4508L55.5133 103.53Z" fill="#8FC946"/>
<path d="M33.5002 116.973L30.9634 116.662L29.2712 118.574L28.7844 116.066L26.4412 115.049L28.6759 113.808L28.9193 111.266L30.7874 113.008L33.2832 112.456L32.2039 114.77L33.5002 116.973Z" fill="#8FC946"/>
<path d="M55.513 119.213L56.3664 116.351L54.4954 114.025L57.4808 113.955L59.1114 111.453L60.1027 114.269L62.9855 115.052L60.613 116.864L60.7625 119.846L58.3049 118.148L55.513 119.213Z" fill="#8FC946"/>
<path d="M100.055 72.9586L93.8021 71.3602L88.9397 75.6068L88.5262 69.1637L82.9863 65.8526L88.9866 63.4713L90.4236 57.1777L94.544 62.1457L100.97 61.568L97.5178 67.0228L100.055 72.9586Z" fill="#50B343"/>
<path d="M77.3879 89.5615L75.8395 86.4235L72.376 85.9191L74.8834 83.4762L74.291 80.0273L77.3879 81.6579L80.4878 80.0273L79.8954 83.4762L82.4029 85.9191L78.9393 86.4235L77.3879 89.5615Z" fill="#50B343"/>
<path d="M116.425 141.439L118.261 138.456L116.847 135.256L120.249 136.081L122.859 133.746L123.123 137.239L126.15 138.999L122.912 140.327L122.173 143.75L119.906 141.084L116.425 141.439Z" fill="#50B343"/>
<path d="M113.621 84.5196L117.542 81.0649L116.918 75.877L121.416 78.5369L126.156 76.3374L125.018 81.4403L128.572 85.2674L123.37 85.7601L120.824 90.3263L118.751 85.5284L113.621 84.5196Z" fill="#50B343"/>
<path d="M87.7927 137.852L91.7108 134.397L91.0861 129.209L95.5849 131.869L100.327 129.669L99.1862 134.769L102.744 138.599L97.5381 139.092L94.9954 143.658L92.9191 138.86L87.7927 137.852Z" fill="#50B343"/>
<path d="M103.492 103.794L99.4711 102.369L96.0134 104.874L96.1278 100.607L92.679 98.0933L96.7701 96.8821L98.0957 92.8262L100.512 96.3454L104.779 96.3513L102.178 99.7356L103.492 103.794Z" fill="#50B343"/>
<path d="M91.9781 122.507L85.6552 123.187L82.6316 128.783L80.0303 122.979L73.7749 121.832L78.4907 117.565L77.649 111.26L83.1654 114.427L88.8988 111.679L87.5938 117.902L91.9781 122.507Z" fill="#50B343"/>
<path d="M109.542 123.823L112.158 117.656L108.556 112.002L115.234 112.582L119.495 107.412L121.009 113.94L127.241 116.398L121.498 119.853L121.091 126.539L116.029 122.146L109.542 123.823Z" fill="#50B343"/>
<g style="mix-blend-mode:multiply">
<path d="M97.8494 38.7676L96.9872 53.8387L95.2686 55.6335C95.2686 55.6335 93.8668 70.338 93.641 70.6196C93.4151 70.9011 107.084 69.074 107.084 69.074L107.932 76.9366C107.932 76.9366 110.571 74.391 111.231 73.9188C111.891 73.4467 110.099 40.929 110.099 40.929L97.8494 38.7676Z" fill="#E1E9D4"/>
</g>
<path d="M112.079 38.766C101.187 37.8364 85.3913 27.5192 66.1792 32.0414C69.8744 33.801 72.244 35.062 72.3642 35.1266C77.0976 35.6105 82.441 36.4023 87.8753 37.0856C101.072 39.159 106.612 39.2294 105.859 49.3443C105.105 59.4591 94.7348 69.0725 94.7348 69.0725L107.554 67.9522L110.193 78.4425C110.193 78.4425 111.137 77.5011 116.765 69.0725C122.393 60.6439 124.144 39.7954 112.079 38.766Z" fill="url(#paint3_linear_1247_5439)"/>
<path d="M91.9781 37.0624C81.1271 34.3731 74.1297 34.684 71.9185 34.8893L72.3642 35.1268C77.0976 35.6107 82.4409 36.4026 87.8752 37.0859C93.5617 37.9803 97.8229 38.5024 100.779 39.6168C98.7731 38.8308 95.9636 38.0507 91.9781 37.0624Z" fill="#CC181F"/>
<path d="M101.662 39.9902C104.917 41.5064 106.255 44.0462 105.859 49.3455C105.208 58.082 97.3862 66.4402 95.2688 68.5547C95.7703 68.0679 96.6677 67.2056 98.1282 65.8126C100.685 63.3785 107.178 54.5012 106.34 47.9232C105.774 43.6326 105.501 41.7205 101.662 39.9902Z" fill="#CC181F"/>
<path d="M72.3759 35.1339L87.1918 36.9991C87.2124 33.1455 82.2385 29.7319 75.8775 29.3096C71.7717 29.0339 68.0765 30.075 65.8389 31.8727C69.8244 33.7643 72.3759 35.1339 72.3759 35.1339Z" fill="url(#paint4_radial_1247_5439)"/>
<g style="mix-blend-mode:multiply">
<path d="M59.704 35.5957C51.7534 45.734 48.504 53.3414 48.504 53.3414L45.1373 53.8107V56.5791C45.1373 56.5791 43.0844 64.3566 44.1167 71.747C45.149 79.1374 48.2665 84.1846 48.2665 84.1846L38.4449 82.2988L35.7292 90.7802L34.1104 58.1217L46.2429 37.1882L59.704 35.5957Z" fill="#E1E9D4"/>
</g>
<path d="M59.7036 35.5957C48.5593 40.3613 37.4151 55.0659 41.9989 70.1487C45.6443 82.1727 47.7001 83.6391 47.7001 83.6391L37.8521 80.4747L35.7288 90.8007C35.7288 90.8007 23.8514 79.5626 25.7371 59.7933C27.6228 40.0241 38.2509 38.3847 38.2509 38.3847L59.7036 35.5957Z" fill="#CC181F"/>
<path d="M58.5747 35.5957C47.4158 40.3613 36.2862 55.0659 40.8671 70.1487C44.5153 82.1727 46.2192 83.1024 46.2192 83.1024L36.7202 80.463L35.3506 90.3256C35.3506 90.3256 22.7195 79.5509 24.6053 59.7816C26.491 40.0123 37.122 38.373 37.122 38.373L58.5747 35.5957Z" fill="url(#paint5_linear_1247_5439)"/>
<defs>
<linearGradient id="paint0_linear_1247_5439" x1="61.954" y1="-6.17182" x2="67.0094" y2="42.8436" gradientUnits="userSpaceOnUse">
<stop stop-color="#ED1C24"/>
<stop offset="0.09" stop-color="#F35256"/>
<stop offset="0.2" stop-color="#F98A8B"/>
<stop offset="0.24" stop-color="#FF9698"/>
<stop offset="0.32" stop-color="#F98586"/>
<stop offset="0.53" stop-color="#FC4C4C"/>
<stop offset="0.74" stop-color="#FE1515"/>
<stop offset="0.84" stop-color="#FF0000"/>
</linearGradient>
<linearGradient id="paint1_linear_1247_5439" x1="120.692" y1="18.381" x2="85.9133" y2="43.2055" gradientUnits="userSpaceOnUse">
<stop stop-color="#ED1C24"/>
<stop offset="0.09" stop-color="#F35256"/>
<stop offset="0.2" stop-color="#F98A8B"/>
<stop offset="0.24" stop-color="#FF9394"/>
<stop offset="0.32" stop-color="#F98586"/>
<stop offset="0.53" stop-color="#FC4C4C"/>
<stop offset="0.74" stop-color="#FE1515"/>
<stop offset="0.84" stop-color="#FF0000"/>
</linearGradient>
<linearGradient id="paint2_linear_1247_5439" x1="44.5479" y1="19.2759" x2="42.2362" y2="50.448" gradientUnits="userSpaceOnUse">
<stop stop-color="#ED1C24"/>
<stop offset="0.09" stop-color="#F35256"/>
<stop offset="0.2" stop-color="#F98A8B"/>
<stop offset="0.24" stop-color="#F99091"/>
<stop offset="0.32" stop-color="#F98586"/>
<stop offset="0.53" stop-color="#FC4C4C"/>
<stop offset="0.74" stop-color="#FE1515"/>
<stop offset="0.84" stop-color="#FF0000"/>
</linearGradient>
<linearGradient id="paint3_linear_1247_5439" x1="97.4124" y1="32.9095" x2="83.705" y2="76.8383" gradientUnits="userSpaceOnUse">
<stop stop-color="#ED1C24"/>
<stop offset="0.09" stop-color="#F35256"/>
<stop offset="0.2" stop-color="#F98A8B"/>
<stop offset="0.24" stop-color="#F99091"/>
<stop offset="0.32" stop-color="#F98586"/>
<stop offset="0.47" stop-color="#FB5B5C"/>
<stop offset="0.67" stop-color="#FD2727"/>
<stop offset="0.74" stop-color="#FE1515"/>
<stop offset="0.84" stop-color="#FF0000"/>
</linearGradient>
<radialGradient id="paint4_radial_1247_5439" cx="0" cy="0" r="1" gradientUnits="userSpaceOnUse" gradientTransform="translate(78.6078 31.1278) scale(9.35823 9.35823)">
<stop stop-color="#FF9394"/>
<stop offset="1" stop-color="#FF0000"/>
</radialGradient>
<linearGradient id="paint5_linear_1247_5439" x1="50.3455" y1="-15.0519" x2="32.8813" y2="109.705" gradientUnits="userSpaceOnUse">
<stop stop-color="#ED1C24"/>
<stop offset="0.09" stop-color="#F35256"/>
<stop offset="0.2" stop-color="#F98A8B"/>
<stop offset="0.24" stop-color="#F99091"/>
<stop offset="0.33" stop-color="#F98586"/>
<stop offset="0.47" stop-color="#FB5B5C"/>
<stop offset="0.67" stop-color="#FD2727"/>
<stop offset="0.74" stop-color="#FE1515"/>
<stop offset="0.84" stop-color="#FF0000"/>
</linearGradient>
</defs>
</svg>
