<svg width="50" height="48" viewBox="0 0 50 48" fill="none" xmlns="http://www.w3.org/2000/svg">
<path d="M23.6916 0.270813C22.9935 0.270813 22.3396 0.614823 21.9416 1.18945L12.2855 15.1685H2.3551C1.68896 15.1685 1.06352 15.4782 0.659152 16.0082C0.259042 16.536 0.123001 17.2215 0.297517 17.8621L5.74698 37.5816C6.25563 39.4204 7.94276 40.7074 9.84967 40.7074H24.261C24.0553 40.0173 23.8975 39.3068 23.7913 38.5792H23.8038C23.7038 37.8832 23.6334 37.1745 23.6334 36.4509C23.6334 28.2232 30.3033 21.5532 38.5311 21.5532C40.2358 21.5532 41.8665 21.8526 43.3903 22.3804C44.1091 22.6296 44.8081 22.9236 45.4728 23.2741L46.9651 17.8662C47.1417 17.2256 47.0077 16.536 46.6076 16.0082C46.2032 15.4782 45.5757 15.1685 44.9116 15.1685H34.9979L25.4499 1.19776C25.054 0.61888 24.4001 0.272941 23.6999 0.270813H23.6916ZM23.6833 6.15673L29.8394 15.1685H17.4565L23.6833 6.15673ZM38.5311 25.8097C32.655 25.8097 27.8899 30.5749 27.8899 36.4509C27.8899 42.327 32.655 47.0922 38.5311 47.0922C44.4072 47.0922 49.1723 42.327 49.1723 36.4509C49.1723 30.5749 44.4072 25.8097 38.5311 25.8097ZM36.4028 30.0662H40.6593V34.3227H44.9158V38.5792H40.6593V42.8357H36.4028V38.5792H32.1463V34.3227H36.4028V30.0662Z" fill="white"/>
</svg>
