<svg width="23" height="36" viewBox="0 0 23 36" fill="none" xmlns="http://www.w3.org/2000/svg">
<path d="M11.1851 0.425537C10.9415 0.425537 10.737 0.550321 10.6027 0.731153C10.5916 0.745915 10.5726 0.750954 10.5623 0.767192L0.229018 17.0052C0.21647 17.0244 0.214844 17.0487 0.204511 17.0686C0.180892 17.1151 0.165196 17.1611 0.151172 17.2113C0.139363 17.2549 0.128914 17.2975 0.125224 17.3425C0.121533 17.3927 0.125789 17.4408 0.132432 17.4924C0.136122 17.5212 0.127934 17.5509 0.135315 17.5789C0.140482 17.5989 0.154621 17.6145 0.161264 17.6337C0.167906 17.6529 0.165381 17.6736 0.174238 17.6928C0.186785 17.7216 0.209193 17.7398 0.224693 17.7663C0.24905 17.8084 0.274387 17.8484 0.306863 17.8846C0.342292 17.9244 0.381561 17.9573 0.423632 17.9883C0.446513 18.0053 0.461263 18.0291 0.48562 18.0431L10.8189 23.9479C10.8351 23.9575 10.8538 23.9614 10.8708 23.9695C10.8907 23.9791 10.9099 23.9859 10.9313 23.994C11.0133 24.0235 11.0987 24.0444 11.1851 24.0444C11.2714 24.0444 11.3568 24.0243 11.4388 23.994C11.4602 23.9859 11.4787 23.9776 11.4993 23.968C11.5163 23.9599 11.535 23.956 11.5512 23.9464L21.8845 18.0417C21.8889 18.0387 21.8916 18.0338 21.896 18.0316C21.9713 17.9866 22.0374 17.9287 22.0935 17.8586C22.1068 17.8416 22.1156 17.8223 22.1281 17.8038C22.1525 17.7677 22.1796 17.7342 22.1973 17.6928C22.2054 17.6736 22.2022 17.6536 22.2088 17.6337C22.2155 17.6145 22.2296 17.5989 22.2348 17.5789C22.2414 17.5509 22.2354 17.5212 22.2391 17.4924C22.2458 17.4408 22.2493 17.392 22.2449 17.3411C22.2412 17.2961 22.2307 17.2534 22.2189 17.2099C22.2049 17.1597 22.19 17.1137 22.1656 17.0672C22.1553 17.0473 22.1529 17.0244 22.1411 17.0052L11.8078 0.767192C11.7982 0.751693 11.7785 0.745177 11.7675 0.731153C11.6331 0.550321 11.4286 0.425537 11.1851 0.425537ZM11.1851 2.31689V13.7112L19.8663 17.4968L11.1851 22.5683V13.7112L2.00505 16.8942L11.1851 2.31689ZM0.733572 20.3641C0.570915 20.3905 0.417346 20.472 0.301097 20.6019C0.0693368 20.8625 0.0511839 21.2498 0.257849 21.5303L10.5911 35.554C10.6007 35.5666 10.6161 35.5711 10.6257 35.5829C10.6752 35.6427 10.7345 35.6886 10.8001 35.7299C10.8252 35.7462 10.8449 35.7664 10.8722 35.7789C10.9682 35.824 11.0721 35.8539 11.1851 35.8539C11.298 35.8539 11.4019 35.824 11.4979 35.7789C11.5244 35.7664 11.5449 35.7454 11.57 35.7299C11.6356 35.6886 11.6949 35.6427 11.7444 35.5829C11.754 35.5711 11.7701 35.5666 11.779 35.554L22.1123 21.5303C22.3189 21.2498 22.3015 20.8625 22.069 20.6019C21.8372 20.3407 21.454 20.2793 21.1522 20.452L11.1851 26.1477L1.21794 20.452C1.06737 20.3664 0.896229 20.3377 0.733572 20.3641ZM3.51727 23.4664L11.1851 27.9656V33.7333L3.51727 23.4664Z" fill="white"/>
</svg>
