<svg width="25" height="31" viewBox="0 0 25 31" fill="none" xmlns="http://www.w3.org/2000/svg">
<path d="M1.96224 0.833336C1.22491 0.833336 0.628906 1.42934 0.628906 2.16667V16.776C0.628906 17.5134 1.22491 18.1094 1.96224 18.1094H11.2956V20.8333H9.96224C9.22491 20.8333 8.62891 21.4293 8.62891 22.1667V28.8333C8.62891 29.5707 9.22491 30.1667 9.96224 30.1667H15.2956C16.0329 30.1667 16.6289 29.5707 16.6289 28.8333V22.1667C16.6289 21.4293 16.0329 20.8333 15.2956 20.8333H13.9622V18.1094H23.2956C24.0329 18.1094 24.6289 17.5134 24.6289 16.776V2.16667C24.6289 1.42934 24.0329 0.833336 23.2956 0.833336C22.5582 0.833336 21.9622 1.42934 21.9622 2.16667V15.4427H3.29557V2.16667C3.29557 1.42934 2.69957 0.833336 1.96224 0.833336Z" fill="white"/>
</svg>
