<svg width="86" height="86" viewBox="0 0 86 86" fill="none" xmlns="http://www.w3.org/2000/svg">
<g clipPath="url(#clip0_279_6150)">
<rect x="3" y="3" width="80" height="80" fill="#DEC90B"/>
<rect x="89.3817" y="-3.38997" width="25.6124" height="121.956" transform="rotate(43.1467 89.3817 -3.38997)" fill="white" fillOpacity="0.1"/>
<rect x="51.5455" y="-29.733" width="25.6124" height="121.956" transform="rotate(43.1467 51.5455 -29.733)" fill="white" fillOpacity="0.1"/>
<path d="M58.8767 27.1967L58.8217 27.1417C54.1284 22.6317 40.7634 24.2083 32.385 32.4217C26.2067 38.7283 21.385 53.0833 27.16 58.84C28.755 60.4533 31.7067 61.3333 35.245 61.3333C40.965 61.3333 48.1884 59.005 53.5967 53.5967C61.865 45.3283 63.4234 31.945 58.8767 27.1967ZM50.7183 42.615L48.115 45.2183L45.75 42.835L42.835 45.75L45.2184 48.115L42.615 50.7183L40.25 48.335L36.9684 51.635L34.365 49.0317L37.665 45.75L35.2817 43.385L37.885 40.7817L40.25 43.165L43.165 40.25L40.7817 37.885L43.385 35.2817L45.75 37.665L49.0317 34.365L51.635 36.9683L48.335 40.25L50.7183 42.615Z" fill="white"/>
</g>
<rect x="1.5" y="1.5" width="83" height="83" stroke="#FCFE9B" strokeWidth="3"/>
<defs>
<clipPath id="clip0_279_6150">
<rect x="3" y="3" width="80" height="80" fill="white"/>
</clipPath>
</defs>
</svg>
