<svg width="86" height="86" viewBox="0 0 86 86" fill="none" xmlns="http://www.w3.org/2000/svg">
<g clipPath="url(#clip0_279_6124)">
<rect x="3" y="3" width="80" height="80" fill="#31B055"/>
<rect x="89.3817" y="-3.38996" width="25.6124" height="121.956" transform="rotate(43.1467 89.3817 -3.38996)" fill="#D7F4D7" fillOpacity="0.14"/>
<rect x="51.5455" y="-29.733" width="25.6124" height="121.956" transform="rotate(43.1467 51.5455 -29.733)" fill="#D7F4D7" fillOpacity="0.14"/>
<path d="M36.5834 24.6667C34.376 24.6667 32 27.248 32 32.9167V36.7409L25.2038 43.5371C24.86 43.8809 24.6668 44.3471 24.6667 44.8333V50.3333H28.3334V45.5924L32 41.9258V48.5C32 49.512 32.8195 50.3333 33.8334 50.3333H39.3334C40.3472 50.3333 41.1667 49.512 41.1667 48.5V32.9167C41.1667 27.248 38.7907 24.6667 36.5834 24.6667ZM49.4167 24.6667C47.2094 24.6667 44.8334 27.248 44.8334 32.9167V48.5C44.8334 49.512 45.6529 50.3333 46.6667 50.3333H52.1667C53.1805 50.3333 54 49.512 54 48.5V41.9258L57.6667 45.5924V50.3333H61.3334V44.8333C61.3333 44.3471 61.1401 43.8809 60.7962 43.5371L54 36.7409V32.9167C54 27.248 51.624 24.6667 49.4167 24.6667ZM36.5834 54C35.0654 54 33.8334 55.232 33.8334 56.75C33.8334 58.5833 36.5834 63.1667 36.5834 63.1667C36.5834 63.1667 39.3334 58.5833 39.3334 56.75C39.3334 55.232 38.1014 54 36.5834 54ZM49.4167 54C47.8987 54 46.6667 55.232 46.6667 56.75C46.6667 58.5833 49.4167 63.1667 49.4167 63.1667C49.4167 63.1667 52.1667 58.5833 52.1667 56.75C52.1667 55.232 50.9347 54 49.4167 54Z" fill="white"/>
</g>
<rect x="1.5" y="1.5" width="83" height="83" stroke="#D7F4D7" strokeWidth="3"/>
<defs>
<clipPath id="clip0_279_6124">
<rect x="3" y="3" width="80" height="80" fill="white"/>
</clipPath>
</defs>
</svg>
